<svg width="205" height="93" viewBox="0 0 205 93" fill="none" xmlns="http://www.w3.org/2000/svg">
<path fill-rule="evenodd" clip-rule="evenodd" d="M36.8619 0.520029C33.9407 1.41117 32.5934 2.26365 30.0517 4.83014C26.7785 8.13513 25.7998 10.2331 25.5565 14.4676C25.4065 17.0819 25.7143 19.3592 26.5111 21.5316C26.8242 22.3847 27.1233 23.5876 27.1758 24.2041C27.2583 25.1717 27.1922 25.4202 26.6945 26.0178L26.1175 26.7101L14.3695 26.7741C2.98797 26.8364 2.59481 26.8526 1.76079 27.2946C1.22629 27.5776 0.728335 28.0804 0.448068 28.62C0.0104935 29.4621 -0.00350882 29.807 0.000429349 39.651L0.0048052 49.8127L1.78355 55.5563C3.79508 62.0518 6.90273 72.1477 8.31129 76.7634C12.5597 90.6849 12.6463 90.9396 13.4055 91.7464C14.594 93.0095 14.5222 93 22.9724 93C28.4426 93 30.907 92.924 31.2426 92.7449C31.5054 92.6046 32.1073 92.1572 32.5803 91.7508C33.3377 91.1 33.5895 91.0118 34.6927 91.0118C35.8113 91.0118 36.0467 91.0973 36.891 91.8095C37.4113 92.2485 38.067 92.6958 38.3482 92.8036C38.6293 92.9116 42.3728 92.9978 46.6669 92.9951C53.9722 92.9905 54.5356 92.9622 55.428 92.5533C56.6469 91.9949 57.8423 91.9988 59.1472 92.5657C60.1376 92.996 60.5441 93.0124 68.7049 92.9523C78.7755 92.8781 78.0854 93.0632 79.5078 90.0571C79.9779 89.0635 80.6251 88.002 80.9461 87.6982C81.5164 87.1588 81.6075 87.146 84.8891 87.146H88.2483L88.8968 87.7733C89.2534 88.1184 89.7142 88.864 89.9205 89.4302C90.4589 90.9071 91.2507 92.068 92.0598 92.5659C92.7422 92.9861 93.2811 92.9985 111.14 92.9985C128.971 92.9985 129.539 92.9856 130.218 92.5679C130.602 92.3311 131.087 91.8592 131.296 91.5195C131.504 91.1795 132.022 90.5285 132.446 90.073C133.552 88.8854 134.412 88.9232 136.14 90.2351C137.791 91.4883 139.386 92.2368 141.333 92.6728C142.665 92.9711 145.34 93.0075 161.899 92.9527L180.933 92.8895L182.929 92.1716C185.598 91.2111 186.756 91.2111 188.049 92.1716C189.002 92.8803 189.05 92.8904 191.756 92.9534C194.198 93.0104 194.576 92.9682 195.211 92.5688C196.445 91.793 196.794 90.9465 196.795 88.7257C196.796 86.1861 196.465 85.4576 194.906 84.5698C194.265 84.2039 193.496 83.6126 193.198 83.2554L192.657 82.6059L192.79 78.5801C192.944 73.8852 192.745 72.3404 191.639 69.6433C190.701 67.3547 190.69 66.7351 191.567 65.7257L192.246 64.9448H197.209C201.923 64.9448 202.221 64.9199 203.144 64.4478C203.719 64.1536 204.295 63.6355 204.557 63.1776C204.991 62.4203 205 62.0649 205 45.8364C205 29.6601 204.99 29.2512 204.562 28.5352C204.322 28.1318 203.78 27.5851 203.359 27.3202C202.628 26.8601 202.318 26.8351 196.467 26.7668L190.341 26.6955L189.724 26.1041C189.146 25.5499 189.113 25.4233 189.201 24.0771C189.253 23.2873 189.468 21.7465 189.679 20.653C190.152 18.2032 190.039 13.6088 189.459 11.7063C188.253 7.75141 184.666 3.6664 180.63 1.6524C177.266 -0.0262734 177.676 0.00553736 159.307 0.00156103C141.378 -0.00197347 142.342 -0.0711172 141.333 1.28702C140.919 1.84414 140.889 2.31335 140.786 9.97683L140.677 18.0777L140.146 18.6474C139.76 19.0625 139.394 19.2171 138.798 19.2171C137.799 19.2171 137.055 18.4327 136.552 16.8492C136.368 16.2683 135.314 12.8605 134.211 9.27633C133.108 5.69212 132.077 2.51106 131.92 2.20732C131.763 1.90357 131.276 1.30712 130.838 0.881875L130.041 0.108701L117.145 0.155091C101.296 0.212085 106.562 0.216945 69.68 0.110027L38.5028 0.0196756L36.8619 0.520029ZM99.2163 10.0495V16.7872H90.2461H81.2758V30.8147V44.8423H73.9464H66.617V30.8147V16.7872H57.0033C50.7016 16.7872 47.3421 16.8649 47.2515 17.0125C47.1756 17.1366 48.1179 18.3046 49.3455 19.6081C54.6599 25.2519 55.752 27.3958 55.7302 32.1402C55.7024 38.159 52.0287 43.0159 46.3803 44.5015C45.2557 44.7973 42.3222 44.8423 24.2357 44.8423H3.38748V37.5524V30.2625H19.7786C28.7937 30.2625 36.3255 30.2022 36.5158 30.1284C36.7062 30.0546 36.8619 29.9013 36.8619 29.7875C36.8619 29.6738 35.6227 28.2182 34.1081 26.5528C31.7797 23.9927 31.208 23.2175 30.4097 21.5367C29.249 19.093 28.9018 17.641 28.93 15.3513C28.9968 9.98942 32.7796 5.37534 38.4523 3.73709C39.7287 3.3684 41.7079 3.34233 69.516 3.32753L99.2163 3.31185V10.0495ZM128.759 3.80889C129.116 4.63243 141.224 44.1851 141.224 44.5293C141.224 44.8021 140.146 44.8397 133.771 44.79L126.319 44.7319L125.391 41.8601L124.462 38.9883L117.44 38.93L110.417 38.8719L109.617 41.4704C109.177 42.8997 108.767 44.243 108.706 44.4557C108.603 44.8145 108.042 44.8423 100.937 44.8423C93.748 44.8423 93.2863 44.8187 93.3905 44.4557C94.0777 42.0576 105.404 4.28207 105.559 3.86964L105.769 3.31185H117.156H128.543L128.759 3.80889ZM176.995 4.02405C181.651 5.62518 184.977 8.91868 186.202 13.1422C186.676 14.7769 186.737 18.3879 186.32 20.1008C185.556 23.2352 183.736 25.7206 180.74 27.722C179.831 28.3295 179.084 28.9485 179.08 29.0976C179.077 29.2467 179.34 29.545 179.665 29.7604C180.208 30.1193 181.148 30.1575 190.933 30.219L201.609 30.2857V37.5641V44.8423H188.528C174.222 44.8423 174.202 44.8408 171.526 43.5242C170.459 42.9993 169.333 41.9871 165.514 38.1168C162.929 35.498 160.739 33.3552 160.646 33.3552C160.553 33.3552 160.477 35.9398 160.477 39.0987V44.8423H152.272H144.068V24.07V3.29771L159.656 3.36001L175.245 3.4223L176.995 4.02405ZM160.571 15.3111C160.51 15.471 160.489 16.6392 160.523 17.9067L160.586 20.2112H165.582H170.578L171.216 19.4897C171.731 18.9068 171.854 18.5663 171.854 17.7165C171.854 16.4666 171.424 15.7557 170.41 15.3279C169.383 14.8947 160.735 14.8799 160.571 15.3111ZM115.813 21.7023C114.907 24.6488 114.21 27.1837 114.263 27.3355C114.334 27.5391 115.188 27.6116 117.515 27.6116C120.128 27.6116 120.693 27.5542 120.798 27.278C120.926 26.9418 117.809 16.3502 117.582 16.3471C117.515 16.3462 116.719 18.7559 115.813 21.7023ZM20.2895 48.9843C20.4584 49.5616 21.1795 52.0456 21.8921 54.505C22.6047 56.9641 23.2468 58.9773 23.3192 58.9784C23.3914 58.9795 23.9651 57.1166 24.5937 54.8384C25.2225 52.5604 25.907 50.0999 26.1151 49.3709L26.4934 48.0455L34.9696 47.9876L43.4457 47.9297L43.7386 48.6503C43.8997 49.0466 44.6989 51.5331 45.5145 54.1756C46.3302 56.8181 47.0555 58.9799 47.1259 58.9795C47.1966 58.979 47.8829 56.817 48.6513 54.1748C49.4197 51.5327 50.1778 49.0477 50.3357 48.653L50.6232 47.935H58.3167H66.0103L65.9176 48.5425C65.8664 48.8765 63.074 58.2706 59.7119 69.4178L53.5992 89.6855L46.5873 89.686L39.5756 89.6864L37.319 82.1203C36.078 77.9591 34.985 74.4105 34.8902 74.2349C34.7741 74.0193 34.5699 74.4138 34.2621 75.4498C34.0111 76.2937 32.9338 79.8174 31.8677 83.2801L29.9294 89.5759H22.951H15.9726L9.69424 69.1421C6.24112 57.9034 3.40957 48.5343 3.4017 48.3216C3.38835 47.96 3.92307 47.935 11.685 47.935H19.9825L20.2895 48.9843ZM95.863 48.1067C96.082 48.2472 98.1034 54.7098 107.325 84.7505C108.04 87.0777 108.624 89.1405 108.624 89.3343C108.624 89.6495 107.848 89.6864 101.196 89.6864H93.7685L92.8277 86.7594L91.887 83.8324L84.8446 83.774L77.8025 83.7157L76.8771 86.7011L75.9516 89.6864H68.4529C64.3287 89.6864 60.9034 89.6033 60.8413 89.5015C60.7791 89.3999 61.0614 88.2319 61.4687 86.9058C61.8759 85.58 64.6363 76.394 67.6029 66.4927C70.5694 56.5912 73.0993 48.3653 73.2248 48.2127C73.4025 47.9964 75.9002 47.9357 84.5296 47.9383C90.6219 47.9403 95.7219 48.0159 95.863 48.1067ZM142.837 48.2677C148.677 49.296 153.138 53.1173 154.454 58.2187C154.885 59.8905 154.885 63.3676 154.454 65.0641C153.692 68.0565 151.784 70.6177 148.845 72.5904C147.851 73.2576 147.35 73.7325 147.395 73.9658C147.561 74.8355 148.138 74.879 159.547 74.8823C169.49 74.8854 170.541 74.8519 170.541 74.5315C170.541 74.3367 169.64 73.2182 168.538 72.0463C164.916 68.1917 163.871 66.544 163.087 63.4502C162.035 59.2947 163.035 55.4196 165.979 52.2487C167.479 50.6336 169.039 49.6552 171.578 48.738L173.495 48.0455L187.552 47.9796L201.609 47.914V54.7725V61.6312H191.326C183.969 61.6312 181.043 61.7006 181.043 61.8751C181.043 62.0094 182.241 63.4248 183.705 65.0206C186.855 68.4548 187.425 69.2077 188.381 71.1967C189.288 73.087 189.671 75.314 189.508 77.7568C189.128 83.4347 185.285 88.0711 179.893 89.3546C177.832 89.8452 144.621 89.8375 142.555 89.346C139.466 88.6108 138.685 88.0493 133.457 82.8089L128.643 77.9843L128.585 83.8381L128.527 89.6917L120.381 89.6338L112.234 89.5759L112.178 69.0316C112.147 57.7322 112.168 48.3631 112.226 48.2112C112.394 47.7662 140.281 47.8177 142.837 48.2677ZM128.8 62.4596L128.862 65.0553L133.414 65.1149C137.281 65.1657 138.081 65.1198 138.729 64.8092C140.037 64.1827 140.506 62.5646 139.787 61.1612C139.197 60.0091 138.476 59.864 133.347 59.864H128.739L128.8 62.4596ZM83.2845 66.2888C81.8236 71.1172 81.537 72.4453 81.9899 72.29C82.0785 72.2597 83.5293 72.2348 85.2139 72.2348C87.8282 72.2348 88.277 72.1848 88.277 71.8941C88.277 71.4724 85.2153 61.3578 85.024 61.1479C84.9481 61.0644 84.1651 63.3777 83.2845 66.2888ZM191.254 87.7731C191.334 87.8535 191.235 87.9191 191.034 87.9191C190.757 87.9191 190.66 88.1445 190.631 88.858L190.593 89.7969L190.509 88.858C190.441 88.0943 190.344 87.9191 189.987 87.9191C189.747 87.9191 189.595 87.8445 189.651 87.7535C189.774 87.5527 191.051 87.5683 191.254 87.7731ZM192.257 88.5118L192.578 89.3254L192.844 88.5118C193.213 87.3828 193.519 87.4952 193.485 88.7476C193.457 89.7518 193.45 89.7637 193.31 89.0237L193.164 88.2505L192.993 88.9685C192.899 89.3634 192.727 89.6864 192.61 89.6864C192.493 89.6864 192.281 89.3634 192.14 88.9685L191.883 88.2505L191.742 89.0237C191.609 89.7571 191.601 89.743 191.573 88.7476C191.539 87.4919 191.816 87.3963 192.257 88.5118Z" fill="black"/>
<path d="M99.2163 10.0495V16.7872H90.2461H81.2758V30.8147V44.8423H73.9464H66.617V30.8147V16.7872H57.0033C50.7016 16.7872 47.3421 16.8649 47.2515 17.0125C47.1756 17.1366 48.1179 18.3046 49.3455 19.6081C54.6599 25.2519 55.752 27.3958 55.7302 32.1402C55.7024 38.159 52.0287 43.0159 46.3803 44.5015C45.2557 44.7973 42.3222 44.8423 24.2357 44.8423H3.38748V37.5524V30.2625H19.7786C28.7937 30.2625 36.3255 30.2022 36.5158 30.1284C36.7062 30.0546 36.8619 29.9013 36.8619 29.7875C36.8619 29.6738 35.6227 28.2182 34.1081 26.5528C31.7797 23.9927 31.208 23.2175 30.4097 21.5367C29.249 19.093 28.9018 17.641 28.93 15.3513C28.9968 9.98942 32.7796 5.37534 38.4523 3.73709C39.7287 3.3684 41.7079 3.34233 69.516 3.32753L99.2163 3.31185V10.0495Z" fill="white"/>
<path fill-rule="evenodd" clip-rule="evenodd" d="M128.759 3.80889C129.116 4.63243 141.224 44.1851 141.224 44.5293C141.224 44.8021 140.146 44.8397 133.771 44.79L126.319 44.7319L125.391 41.8601L124.462 38.9883L117.44 38.93L110.417 38.8719L109.617 41.4704C109.177 42.8997 108.767 44.243 108.706 44.4557C108.603 44.8145 108.042 44.8423 100.937 44.8423C93.748 44.8423 93.2863 44.8187 93.3905 44.4557C94.0777 42.0576 105.404 4.28207 105.559 3.86964L105.769 3.31185H117.156H128.543L128.759 3.80889ZM114.263 27.3355C114.21 27.1837 114.907 24.6488 115.813 21.7023C116.719 18.7559 117.515 16.3462 117.582 16.3471C117.809 16.3502 120.926 26.9418 120.798 27.278C120.693 27.5542 120.128 27.6116 117.515 27.6116C115.188 27.6116 114.334 27.5391 114.263 27.3355Z" fill="white"/>
<path fill-rule="evenodd" clip-rule="evenodd" d="M176.995 4.02405C181.651 5.62518 184.977 8.91868 186.202 13.1422C186.676 14.7769 186.737 18.3879 186.32 20.1008C185.556 23.2352 183.736 25.7206 180.74 27.722C179.831 28.3295 179.084 28.9485 179.08 29.0976C179.077 29.2467 179.34 29.545 179.665 29.7604C180.208 30.1193 181.148 30.1575 190.933 30.219L201.609 30.2857V37.5641V44.8423H188.528C174.222 44.8423 174.202 44.8408 171.526 43.5242C170.459 42.9993 169.333 41.9871 165.514 38.1168C162.929 35.498 160.739 33.3552 160.646 33.3552C160.553 33.3552 160.477 35.9398 160.477 39.0987V44.8423H152.272H144.068V24.07V3.29771L159.656 3.36001L175.245 3.4223L176.995 4.02405ZM160.523 17.9067C160.489 16.6392 160.51 15.471 160.571 15.3111C160.735 14.8799 169.383 14.8947 170.41 15.3279C171.424 15.7557 171.854 16.4666 171.854 17.7165C171.854 18.5663 171.731 18.9068 171.216 19.4897L170.578 20.2112H165.582H160.586L160.523 17.9067Z" fill="white"/>
<path fill-rule="evenodd" clip-rule="evenodd" d="M142.837 48.2677C148.677 49.296 153.138 53.1173 154.454 58.2187C154.885 59.8905 154.885 63.3676 154.454 65.0641C153.692 68.0565 151.784 70.6177 148.845 72.5904C147.851 73.2576 147.35 73.7325 147.395 73.9658C147.561 74.8355 148.138 74.879 159.547 74.8823C169.49 74.8854 170.541 74.8519 170.541 74.5315C170.541 74.3367 169.64 73.2182 168.538 72.0463C164.916 68.1917 163.871 66.544 163.087 63.4502C162.035 59.2947 163.035 55.4196 165.979 52.2487C167.479 50.6336 169.039 49.6552 171.578 48.738L173.495 48.0455L187.552 47.9796L201.609 47.914V54.7725V61.6312H191.326C183.969 61.6312 181.043 61.7006 181.043 61.8751C181.043 62.0094 182.241 63.4248 183.705 65.0206C186.855 68.4548 187.425 69.2077 188.381 71.1967C189.288 73.087 189.671 75.314 189.508 77.7568C189.128 83.4347 185.285 88.0711 179.893 89.3546C177.832 89.8452 144.621 89.8375 142.555 89.346C139.466 88.6108 138.685 88.0493 133.457 82.8089L128.643 77.9843L128.585 83.8381L128.527 89.6917L120.381 89.6338L112.234 89.5759L112.178 69.0316C112.147 57.7322 112.168 48.3631 112.226 48.2112C112.394 47.7662 140.281 47.8177 142.837 48.2677ZM128.862 65.0553L128.8 62.4596L128.739 59.864H133.347C138.476 59.864 139.197 60.0091 139.787 61.1612C140.506 62.5646 140.037 64.1827 138.729 64.8092C138.081 65.1198 137.281 65.1657 133.414 65.1149L128.862 65.0553Z" fill="white"/>
<path fill-rule="evenodd" clip-rule="evenodd" d="M95.863 48.1067C96.082 48.2472 98.1034 54.7098 107.325 84.7505C108.04 87.0777 108.624 89.1405 108.624 89.3343C108.624 89.6495 107.848 89.6864 101.196 89.6864H93.7685L92.8277 86.7594L91.887 83.8324L84.8446 83.774L77.8025 83.7157L76.8771 86.7011L75.9516 89.6864H68.4529C64.3287 89.6864 60.9034 89.6033 60.8413 89.5015C60.7791 89.3999 61.0614 88.2319 61.4687 86.9058C61.8759 85.58 64.6363 76.394 67.6029 66.4927C70.5694 56.5912 73.0993 48.3653 73.2248 48.2127C73.4025 47.9964 75.9002 47.9357 84.5296 47.9383C90.6219 47.9403 95.7219 48.0159 95.863 48.1067ZM81.9899 72.29C81.537 72.4453 81.8236 71.1172 83.2845 66.2888C84.1651 63.3777 84.9481 61.0644 85.024 61.1479C85.2153 61.3578 88.277 71.4724 88.277 71.8941C88.277 72.1848 87.8282 72.2348 85.2139 72.2348C83.5293 72.2348 82.0785 72.2597 81.9899 72.29Z" fill="white"/>
<path d="M20.2895 48.9843C20.4584 49.5616 21.1795 52.0456 21.8921 54.505C22.6047 56.9641 23.2468 58.9773 23.3192 58.9784C23.3914 58.9795 23.9651 57.1166 24.5937 54.8384C25.2225 52.5604 25.907 50.0999 26.1151 49.3709L26.4934 48.0455L34.9696 47.9876L43.4457 47.9297L43.7386 48.6503C43.8997 49.0466 44.6989 51.5331 45.5145 54.1756C46.3302 56.8181 47.0555 58.9799 47.1259 58.9795C47.1966 58.979 47.8829 56.817 48.6513 54.1748C49.4197 51.5327 50.1778 49.0477 50.3357 48.653L50.6232 47.935H58.3167H66.0103L65.9176 48.5425C65.8664 48.8765 63.074 58.2706 59.7119 69.4178L53.5992 89.6855L46.5873 89.686L39.5756 89.6864L37.319 82.1203C36.078 77.9591 34.985 74.4105 34.8902 74.2349C34.7741 74.0193 34.5699 74.4138 34.2621 75.4498C34.0111 76.2937 32.9338 79.8174 31.8677 83.2801L29.9294 89.5759H22.951H15.9726L9.69424 69.1421C6.24112 57.9034 3.40957 48.5343 3.4017 48.3216C3.38835 47.96 3.92307 47.935 11.685 47.935H19.9825L20.2895 48.9843Z" fill="white"/>
</svg>
